<svg version="1.1" width="32px" height="32px"
    style="shape-rendering:geometricPrecision; text-rendering:geometricPrecision; image-rendering:optimizeQuality; fill-rule:evenodd; clip-rule:evenodd"
    xmlns:xlink="http://www.w3.org/1999/xlink"
    xmlns="http://www.w3.org/2000/svg">
    <g>
        <path style="opacity:0.863" fill="#cccdce"
            d="M 7.5,-0.5 C 12.8333,-0.5 18.1667,-0.5 23.5,-0.5C 24.8382,1.66979 26.6716,3.33645 29,4.5C 29.4935,6.13414 29.6602,7.80081 29.5,9.5C 28.448,9.35055 27.448,9.51722 26.5,10C 23.9306,13.9231 20.2639,15.4231 15.5,14.5C 10.7361,15.4231 7.06939,13.9231 4.5,10C 3.55198,9.51722 2.55198,9.35055 1.5,9.5C 1.33982,7.80081 1.50649,6.13414 2,4.5C 4.32844,3.33645 6.16177,1.66979 7.5,-0.5 Z" />
    </g>
    <g>
        <path style="opacity:1" fill="#595d64"
            d="M 9.5,1.5 C 13.9671,1.13256 18.3004,1.63256 22.5,3C 24.8287,9.51236 22.4954,12.3457 15.5,11.5C 6.67806,11.8396 4.67806,8.50626 9.5,1.5 Z" />
    </g>
    <g>
        <path style="opacity:1" fill="#5dc2db"
            d="M 10.5,4.5 C 12.9118,4.69408 13.9118,6.02741 13.5,8.5C 12.5,8.5 11.5,8.5 10.5,8.5C 10.5,7.16667 10.5,5.83333 10.5,4.5 Z" />
    </g>
    <g>
        <path style="opacity:1" fill="#5ec2db"
            d="M 17.5,4.5 C 19.9118,4.69408 20.9118,6.02741 20.5,8.5C 19.5,8.5 18.5,8.5 17.5,8.5C 17.5,7.16667 17.5,5.83333 17.5,4.5 Z" />
    </g>
    <g>
        <path style="opacity:0.706" fill="#d8d8d8"
            d="M 9.5,16.5 C 13.5,15.1667 17.5,15.1667 21.5,16.5C 17.5,17.8333 13.5,17.8333 9.5,16.5 Z" />
    </g>
    <g>
        <path style="opacity:1" fill="#9b9fa2"
            d="M 9.5,16.5 C 13.5,17.8333 17.5,17.8333 21.5,16.5C 22.5,16.8333 23.1667,17.5 23.5,18.5C 21.5648,19.1495 19.5648,19.4828 17.5,19.5C 15.8333,19.5 14.1667,19.5 12.5,19.5C 10.8333,19.5 9.16667,19.5 7.5,19.5C 7.42702,17.9731 8.09368,16.9731 9.5,16.5 Z" />
    </g>
    <g>
        <path style="opacity:0.947" fill="#dadada"
            d="M 23.5,18.5 C 25.631,23.9894 24.2977,28.3227 19.5,31.5C 16.8333,31.5 14.1667,31.5 11.5,31.5C 6.802,28.5595 5.46867,24.5595 7.5,19.5C 9.16667,19.5 10.8333,19.5 12.5,19.5C 14.4551,23.3521 16.1217,23.3521 17.5,19.5C 19.5648,19.4828 21.5648,19.1495 23.5,18.5 Z" />
    </g>
    <g>
        <path style="opacity:1" fill="#e6a944"
            d="M 12.5,19.5 C 14.1667,19.5 15.8333,19.5 17.5,19.5C 16.1217,23.3521 14.4551,23.3521 12.5,19.5 Z" />
    </g>
</svg>